<svg width="120" height="64" viewBox="0 0 120 64" fill="none" xmlns="http://www.w3.org/2000/svg">
<path d="M60 3.1858C92.1375 3.1858 116.85 16.8772 116.85 31.9149C116.85 46.9526 92.1188 60.644 60 60.644C27.8625 60.644 3.15 46.9526 3.15 31.9149C3.15 16.8772 27.8812 3.1858 60 3.1858ZM60 0C26.8688 0 0 14.2792 0 31.9149C0 49.5506 26.8688 63.8298 60 63.8298C93.1312 63.8298 120 49.5506 120 31.9149C120 14.2792 93.1312 0 60 0ZM40.9125 29.3549C39.4312 37.0349 34.2 36.2385 27.7688 36.2385L30.3375 22.8505C37.4625 22.8505 42.3 22.073 40.9125 29.3549ZM18.2625 49.7971H25.1438L26.775 41.3016C34.4813 41.3016 39.2625 41.8705 43.6875 37.6797C48.5812 33.1285 49.8563 25.0313 46.3688 20.9732C44.55 18.8493 41.625 17.8064 37.65 17.8064H24.3938L18.2625 49.7971ZM53.0813 9.29192H59.925L58.2937 17.7874C64.2 17.7874 69.675 17.3512 72.3188 19.8164C75.0938 22.3954 73.7625 25.695 70.7625 41.2637H63.825C66.7125 26.207 67.2562 24.9554 66.2063 23.8177C65.1937 22.7178 62.8875 22.9454 57.3188 22.9454L53.7937 41.2637H46.95L53.0813 9.29192ZM94.6875 29.3549C93.1875 37.1487 87.8063 36.2385 81.5437 36.2385L84.1125 22.8505C91.275 22.8505 96.075 22.073 94.6875 29.3549ZM72.0375 49.7971H78.9375L80.5688 41.3016C88.6688 41.3016 93.15 41.7757 97.4813 37.6797C102.375 33.1285 103.65 25.0313 100.163 20.9732C98.3438 18.8493 95.4188 17.8064 91.4438 17.8064H78.1875L72.0375 49.7971Z" fill="white"/>
</svg>
