<svg width="18" height="20" viewBox="0 0 18 20" fill="none" xmlns="http://www.w3.org/2000/svg">
<path d="M17.0739 2.57582L15.0326 0.54918C14.6784 0.197548 14.198 2.6003e-06 13.6971 0L6.92494 0C5.88187 0 5.03632 0.839453 5.03632 1.875V3.75H1.88862C0.845551 3.75 0 4.58945 0 5.625V18.125C0 19.1605 0.845551 20 1.88862 20H10.7022C11.7452 20 12.5908 19.1605 12.5908 18.125V16.25H15.7385C16.7816 16.25 17.6271 15.4105 17.6271 14.375V3.90164C17.6271 3.40436 17.4281 2.92745 17.0739 2.57582ZM10.4661 18.125H2.1247C2.06209 18.125 2.00204 18.1003 1.95777 18.0564C1.91349 18.0124 1.88862 17.9528 1.88862 17.8906V5.85938C1.88862 5.79721 1.91349 5.7376 1.95777 5.69365C2.00204 5.64969 2.06209 5.625 2.1247 5.625H5.03632V14.375C5.03632 15.4105 5.88187 16.25 6.92494 16.25H10.7022V17.8906C10.7022 17.9528 10.6773 18.0124 10.633 18.0564C10.5888 18.1003 10.5287 18.125 10.4661 18.125ZM15.5024 14.375H7.16102C7.0984 14.375 7.03836 14.3503 6.99408 14.3064C6.94981 14.2624 6.92494 14.2028 6.92494 14.1406V2.10938C6.92494 2.04721 6.94981 1.9876 6.99408 1.94365C7.03836 1.89969 7.0984 1.875 7.16102 1.875H11.3317V5.3125C11.3317 5.83027 11.7545 6.25 12.276 6.25H15.7385V14.1406C15.7385 14.2028 15.7136 14.2624 15.6694 14.3064C15.6251 14.3503 15.565 14.375 15.5024 14.375ZM15.7385 4.375H13.2203V1.875H13.5993C13.6619 1.875 13.722 1.89969 13.7663 1.94363L15.6694 3.83301C15.6913 3.85477 15.7087 3.88061 15.7205 3.90905C15.7324 3.93749 15.7385 3.96797 15.7385 3.99875V4.375Z" fill="#CECECE"/>
</svg>
